<?xml version="1.0" ?><!DOCTYPE svg  PUBLIC '-//W3C//DTD SVG 1.1//EN'  'http://www.w3.org/Graphics/SVG/1.1/DTD/svg11.dtd'><svg enable-background="new 0 0 512 512" height="512px" id="bicycle" version="1.1" viewBox="0 0 512 512" width="512px" xml:space="preserve" xmlns="http://www.w3.org/2000/svg" xmlns:xlink="http://www.w3.org/1999/xlink"><g><path d="M392.28,237.091c-1.109,0-2.211,0.033-3.308,0.084c-0.141,0.007-0.282,0.011-0.422,0.018   c-1.029,0.055-2.053,0.135-3.069,0.234c-0.2,0.02-0.4,0.038-0.601,0.06c-0.981,0.104-1.958,0.228-2.927,0.373   c-0.225,0.033-0.447,0.069-0.671,0.104c-0.955,0.152-1.904,0.319-2.846,0.51c-0.218,0.043-0.434,0.093-0.65,0.139   c-0.857,0.182-1.711,0.378-2.557,0.592c-0.253,0.063-0.505,0.128-0.757,0.195c-0.799,0.211-1.591,0.438-2.378,0.677   c-0.281,0.085-0.563,0.167-0.844,0.255c-0.812,0.257-1.615,0.533-2.414,0.819c-0.33,0.118-0.658,0.236-0.985,0.359   c-0.765,0.287-1.524,0.586-2.275,0.898c-0.343,0.143-0.683,0.289-1.021,0.437c-0.739,0.321-1.476,0.65-2.201,0.997l-53.776-89.732   c-4.503-7.242-17.591-18.98-36.714-15.912c-1.614-1.79-3.942-2.926-6.527-2.926h-18.003c-4.844,0-8.808,3.964-8.808,8.808v2.168   c0,4.844,3.964,8.807,8.808,8.807h18.003c2.699,0,5.122-1.232,6.741-3.161c15.889-3.691,23.994,7.748,25.033,9.34l16.443,27.437   H177.729l-11.043-18.425h14.134c5.407,0,9.833-4.426,9.833-9.834v-3.594c0-5.409-4.426-9.834-9.833-9.834h-49.777   c-5.409,0-9.834,4.426-9.834,9.834v3.594c0,5.409,4.425,9.834,9.834,9.834h19.904l15.259,25.461l-22.208,45.743   c-0.001,0-0.001,0-0.001,0c-0.647-0.241-1.306-0.459-1.961-0.682c-0.365-0.124-0.727-0.253-1.094-0.371   c-0.601-0.192-1.208-0.367-1.816-0.543c-0.437-0.127-0.874-0.256-1.315-0.375c-0.575-0.155-1.154-0.297-1.735-0.437   c-0.49-0.118-0.982-0.233-1.477-0.342c-0.552-0.12-1.104-0.233-1.66-0.34c-0.545-0.105-1.091-0.201-1.64-0.293   c-0.523-0.088-1.046-0.174-1.573-0.25c-0.607-0.088-1.219-0.162-1.832-0.233c-0.48-0.057-0.96-0.117-1.444-0.164   c-0.713-0.068-1.431-0.117-2.15-0.164c-0.396-0.025-0.789-0.061-1.187-0.08c-1.125-0.055-2.254-0.086-3.392-0.086   c-38.497,0-69.817,31.321-69.817,69.818s31.32,69.816,69.817,69.816c1.169,0,2.33-0.031,3.485-0.089   c0.387-0.019,0.77-0.057,1.156-0.083c0.764-0.05,1.528-0.099,2.285-0.174c0.457-0.046,0.908-0.109,1.362-0.163   c0.679-0.081,1.358-0.159,2.03-0.259c0.483-0.072,0.96-0.161,1.439-0.242c0.636-0.108,1.271-0.216,1.902-0.341   c0.492-0.099,0.979-0.211,1.469-0.319c0.606-0.135,1.214-0.27,1.814-0.42c0.496-0.124,0.987-0.261,1.479-0.396   c0.584-0.16,1.167-0.321,1.745-0.496c0.495-0.15,0.986-0.31,1.478-0.47c0.563-0.185,1.123-0.372,1.68-0.569   c0.492-0.176,0.982-0.358,1.47-0.545c0.543-0.206,1.082-0.419,1.618-0.639c0.488-0.2,0.974-0.405,1.456-0.616   c0.522-0.229,1.042-0.465,1.559-0.706c0.482-0.226,0.963-0.454,1.439-0.689c0.503-0.249,0.999-0.506,1.495-0.767   c0.477-0.251,0.953-0.503,1.424-0.764c0.479-0.267,0.952-0.543,1.425-0.82c0.472-0.277,0.944-0.554,1.409-0.841   c0.455-0.282,0.901-0.574,1.35-0.866c0.468-0.305,0.937-0.606,1.396-0.921c0.428-0.293,0.845-0.598,1.265-0.9   c0.466-0.334,0.934-0.664,1.391-1.01c0.39-0.295,0.769-0.603,1.151-0.905c0.472-0.372,0.947-0.739,1.408-1.123   c0.325-0.271,0.64-0.556,0.961-0.832c0.502-0.435,1.01-0.863,1.5-1.312c0.058-0.053,0.112-0.108,0.17-0.162   c1.447-1.33,2.837-2.721,4.168-4.167c0.042-0.047,0.088-0.091,0.131-0.138c0.521-0.57,1.023-1.158,1.526-1.746   c0.199-0.232,0.405-0.459,0.602-0.694c0.463-0.556,0.907-1.126,1.354-1.696c0.22-0.28,0.445-0.556,0.661-0.84   c0.426-0.563,0.835-1.137,1.244-1.712c0.217-0.306,0.438-0.606,0.65-0.915c0.396-0.576,0.777-1.162,1.155-1.75   c0.208-0.321,0.417-0.64,0.618-0.964c0.368-0.592,0.723-1.192,1.073-1.796c0.193-0.333,0.388-0.665,0.576-1.001   c0.341-0.61,0.669-1.228,0.992-1.848c0.177-0.342,0.354-0.683,0.525-1.026c0.314-0.63,0.618-1.265,0.914-1.905   c0.159-0.346,0.317-0.692,0.472-1.041c0.287-0.651,0.565-1.307,0.834-1.967c0.141-0.348,0.277-0.696,0.412-1.046   c0.262-0.674,0.515-1.352,0.755-2.036c0.121-0.343,0.235-0.689,0.351-1.035c0.234-0.7,0.462-1.403,0.674-2.113   c0.1-0.334,0.191-0.672,0.287-1.008c0.206-0.731,0.407-1.464,0.59-2.204c0.078-0.316,0.146-0.635,0.221-0.952   c0.178-0.77,0.353-1.541,0.505-2.32c0.055-0.28,0.101-0.564,0.151-0.846c0.151-0.823,0.298-1.647,0.419-2.48   c0.03-0.208,0.052-0.418,0.08-0.626c0.125-0.914,0.243-1.829,0.332-2.753c0-0.001,0-0.002,0-0.002h20.837   c3.861,13.083,15.977,22.662,30.295,22.662c3.224,0,6.337-0.488,9.27-1.391l8.046,13.904c-1.961,1.181-3.286,3.31-3.286,5.766   c0,3.729,3.021,6.75,6.75,6.75h20.395c3.729,0,6.75-3.021,6.75-6.75s-3.021-6.75-6.75-6.75h-8.83l-11.323-19.567   c6.478-5.788,10.563-14.197,10.563-23.547c0-7.276-2.479-13.981-6.631-19.327l59.506-77.978l25.99,43.369   c-0.283,0.211-0.562,0.429-0.842,0.644c-0.492,0.377-0.98,0.76-1.462,1.15c-0.276,0.224-0.557,0.444-0.829,0.671   c-0.629,0.524-1.245,1.062-1.854,1.606c-0.284,0.254-0.566,0.511-0.847,0.77c-0.604,0.558-1.201,1.123-1.784,1.701   c-0.242,0.24-0.479,0.486-0.718,0.73c-0.456,0.466-0.906,0.938-1.349,1.415c-0.22,0.236-0.442,0.47-0.659,0.709   c-0.564,0.626-1.113,1.266-1.654,1.911c-0.226,0.269-0.449,0.537-0.67,0.81c-0.537,0.659-1.064,1.327-1.578,2.007   c-0.184,0.243-0.361,0.491-0.543,0.737c-0.429,0.583-0.849,1.173-1.26,1.77c-0.147,0.216-0.3,0.428-0.445,0.645   c-0.494,0.735-0.971,1.484-1.438,2.239c-0.16,0.261-0.32,0.521-0.478,0.782c-0.46,0.766-0.907,1.539-1.337,2.323   c-0.126,0.229-0.246,0.46-0.369,0.69c-0.386,0.721-0.76,1.447-1.119,2.183c-0.082,0.167-0.168,0.332-0.249,0.5   c-0.406,0.846-0.79,1.704-1.163,2.568c-0.104,0.238-0.206,0.478-0.307,0.718c-0.361,0.865-0.708,1.739-1.035,2.622   c-0.078,0.208-0.15,0.418-0.226,0.627c-0.31,0.859-0.604,1.725-0.881,2.599c-0.034,0.106-0.071,0.211-0.104,0.317   c-0.295,0.947-0.563,1.905-0.817,2.868c-0.056,0.215-0.113,0.429-0.168,0.644c-0.241,0.952-0.464,1.91-0.665,2.877   c-0.041,0.195-0.078,0.392-0.117,0.588c-0.196,0.98-0.376,1.967-0.53,2.962c-0.008,0.046-0.017,0.091-0.023,0.137   c-0.157,1.028-0.284,2.065-0.396,3.107c-0.021,0.2-0.044,0.398-0.063,0.6c-0.101,1.015-0.179,2.035-0.234,3.063   c-0.01,0.195-0.018,0.391-0.026,0.586c-0.05,1.072-0.082,2.149-0.082,3.233c0,38.497,31.319,69.816,69.816,69.816   s69.817-31.319,69.817-69.816S430.777,237.091,392.28,237.091z M156.133,247.366l18.363-37.822l43.614,72.776   c-4.751,4.71-8.015,10.913-9.024,17.84h-19.882c0-0.001,0-0.002-0.001-0.002c-0.039-0.407-0.089-0.81-0.135-1.214   c-0.068-0.604-0.146-1.206-0.23-1.806c-0.068-0.485-0.138-0.971-0.217-1.453c-0.117-0.724-0.246-1.442-0.386-2.158   c-0.083-0.425-0.168-0.848-0.259-1.27c-0.17-0.795-0.352-1.586-0.549-2.371c-0.1-0.399-0.21-0.795-0.317-1.191   c-0.155-0.573-0.317-1.145-0.487-1.712c-0.148-0.497-0.3-0.993-0.459-1.486c-0.208-0.641-0.424-1.278-0.648-1.911   c-0.141-0.394-0.281-0.786-0.428-1.176c-0.283-0.754-0.578-1.501-0.886-2.242c-0.154-0.37-0.315-0.736-0.477-1.104   c-0.245-0.562-0.497-1.119-0.757-1.673c-0.215-0.458-0.434-0.914-0.657-1.366c-0.291-0.588-0.591-1.171-0.897-1.75   c-0.187-0.352-0.373-0.702-0.565-1.049c-0.391-0.707-0.793-1.406-1.207-2.098c-0.199-0.331-0.403-0.659-0.607-0.987   c-0.344-0.553-0.695-1.1-1.054-1.642c-0.261-0.395-0.525-0.786-0.794-1.175c-0.372-0.539-0.752-1.072-1.14-1.601   c-0.223-0.304-0.443-0.607-0.671-0.907c-0.492-0.649-0.995-1.288-1.509-1.92c-0.238-0.291-0.479-0.578-0.722-0.866   c-0.448-0.533-0.904-1.06-1.368-1.579c-0.291-0.326-0.587-0.648-0.885-0.97c-0.443-0.479-0.895-0.952-1.353-1.419   c-0.253-0.258-0.503-0.516-0.759-0.77c-0.584-0.576-1.178-1.142-1.781-1.697c-0.273-0.252-0.549-0.5-0.826-0.748   c-0.563-0.502-1.131-0.997-1.709-1.481c-0.301-0.252-0.606-0.499-0.912-0.746c-0.507-0.411-1.021-0.814-1.539-1.211   c-0.277-0.212-0.553-0.426-0.834-0.634c-0.664-0.492-1.34-0.97-2.021-1.438c-0.305-0.209-0.611-0.416-0.919-0.62   C157.545,248.256,156.844,247.803,156.133,247.366z M241.247,294.662l-4.577-7.637c1.185-0.244,2.41-0.374,3.666-0.374   c2.172,0,4.246,0.404,6.178,1.109L241.247,294.662z M228.802,300.159h-5.942c0.535-2.039,1.402-3.943,2.564-5.636L228.802,300.159z    M150.198,259.59c6.002,3.879,11.222,8.867,15.366,14.673c0.013,0.018,0.025,0.034,0.037,0.052   c0.584,0.819,1.146,1.654,1.688,2.505c0.002,0.006,0.006,0.011,0.01,0.016c3.283,5.177,5.744,10.923,7.201,17.055   c0.002,0.008,0.004,0.016,0.006,0.023c0.237,1.002,0.447,2.014,0.631,3.036c0.005,0.032,0.012,0.065,0.018,0.098   c0.182,1.024,0.336,2.059,0.462,3.101c0,0.004,0.001,0.008,0.001,0.012H130.5L150.198,259.59L150.198,259.59z M63.402,306.909   c0-31.054,25.264-56.318,56.317-56.318c0.89,0,1.773,0.026,2.653,0.067c0.328,0.016,0.654,0.042,0.981,0.063   c0.535,0.035,1.069,0.073,1.601,0.123c0.418,0.039,0.834,0.084,1.248,0.133c0.414,0.047,0.824,0.101,1.235,0.157   c0.486,0.067,0.972,0.137,1.454,0.217c0.277,0.045,0.553,0.099,0.828,0.148c2.857,0.519,5.645,1.245,8.338,2.175   c0.002,0,0.002,0.001,0.004,0.001l-24.415,50.286c-1.015,2.093-0.884,4.56,0.351,6.53s3.396,3.168,5.722,3.168h55.897   c0,0.006-0.001,0.011-0.002,0.017c-0.94,7.809-3.484,15.13-7.291,21.626c-0.018,0.031-0.035,0.063-0.054,0.094   c-0.389,0.661-0.793,1.311-1.207,1.953c-0.056,0.085-0.108,0.171-0.164,0.255c-0.395,0.605-0.802,1.201-1.22,1.789   c-0.082,0.117-0.165,0.233-0.248,0.35c-0.405,0.563-0.82,1.116-1.245,1.663c-0.104,0.134-0.209,0.267-0.314,0.399   c-0.418,0.528-0.845,1.05-1.281,1.563c-0.12,0.142-0.242,0.28-0.363,0.42c-0.435,0.5-0.876,0.995-1.327,1.48   c-0.131,0.14-0.265,0.277-0.397,0.416c-0.454,0.479-0.913,0.952-1.385,1.414c-0.132,0.129-0.267,0.254-0.399,0.382   c-0.484,0.465-0.972,0.927-1.471,1.374c-0.108,0.097-0.221,0.189-0.329,0.285c-2.243,1.979-4.646,3.779-7.185,5.387   c-0.21,0.133-0.416,0.272-0.628,0.402c-0.44,0.271-0.891,0.526-1.339,0.785c-0.313,0.18-0.623,0.365-0.939,0.54   c-0.416,0.23-0.842,0.447-1.265,0.667c-0.359,0.187-0.716,0.375-1.079,0.554c-0.408,0.2-0.821,0.39-1.234,0.581   c-0.39,0.18-0.78,0.36-1.175,0.532c-0.403,0.175-0.812,0.342-1.221,0.508c-0.414,0.169-0.829,0.334-1.247,0.493   c-0.403,0.152-0.81,0.299-1.218,0.443c-0.435,0.152-0.871,0.301-1.31,0.444c-0.402,0.131-0.807,0.257-1.213,0.379   c-0.455,0.137-0.914,0.266-1.374,0.392c-0.399,0.108-0.8,0.216-1.203,0.316c-0.478,0.118-0.958,0.227-1.44,0.333   c-0.395,0.087-0.79,0.176-1.188,0.254c-0.503,0.1-1.009,0.187-1.517,0.272c-0.386,0.064-0.77,0.134-1.158,0.191   c-0.538,0.08-1.082,0.143-1.625,0.207c-0.364,0.043-0.727,0.093-1.093,0.129c-0.608,0.06-1.222,0.1-1.835,0.141   c-0.308,0.02-0.612,0.05-0.922,0.064c-0.925,0.046-1.855,0.071-2.792,0.071C88.666,363.226,63.402,337.962,63.402,306.909z    M240.336,322.821c-6.728,0-12.597-3.699-15.712-9.162h12.673l5.218,9.018C241.799,322.764,241.074,322.821,240.336,322.821z    M258.42,304.736c0,4.33-1.532,8.306-4.079,11.423l-5.398-9.329l7.633-10.001C257.745,299.222,258.42,301.898,258.42,304.736z    M254.926,276.737c-4.368-2.286-9.329-3.586-14.59-3.586c-3.805,0-7.453,0.676-10.834,1.914l-43.684-72.892h126.008   L254.926,276.737z M392.28,363.226c-31.053,0-56.316-25.264-56.316-56.316c0-1.058,0.035-2.107,0.093-3.15   c0.019-0.334,0.052-0.664,0.076-0.997c0.053-0.711,0.11-1.421,0.189-2.124c0.041-0.379,0.094-0.754,0.144-1.13   c0.087-0.66,0.183-1.316,0.292-1.969c0.063-0.374,0.13-0.746,0.2-1.117c0.126-0.666,0.266-1.328,0.415-1.986   c0.076-0.335,0.15-0.672,0.232-1.005c0.184-0.74,0.384-1.474,0.596-2.202c0.069-0.237,0.131-0.477,0.203-0.712   c0.605-1.983,1.314-3.922,2.127-5.807c0.037-0.084,0.077-0.166,0.113-0.25c0.371-0.849,0.762-1.688,1.173-2.515   c0.082-0.164,0.168-0.325,0.251-0.488c0.385-0.756,0.784-1.502,1.201-2.237c0.092-0.161,0.186-0.321,0.278-0.482   c0.44-0.758,0.896-1.505,1.37-2.239c0.071-0.11,0.141-0.222,0.213-0.331c2.851-4.354,6.284-8.292,10.193-11.699   c0.012-0.01,0.023-0.021,0.034-0.03c0.785-0.683,1.589-1.345,2.41-1.984l0,0l28.722,47.926c1.266,2.11,3.502,3.281,5.797,3.281   c1.18,0,2.377-0.31,3.463-0.961c3.197-1.917,4.236-6.062,2.32-9.26l-28.732-47.943c0.001,0,0.002,0,0.002-0.001   c0.873-0.391,1.757-0.76,2.651-1.107c0.007-0.002,0.012-0.005,0.018-0.007c0.876-0.34,1.764-0.657,2.659-0.954   c0.033-0.011,0.065-0.022,0.098-0.033c0.857-0.282,1.725-0.541,2.6-0.783c0.076-0.021,0.15-0.044,0.226-0.064   c0.825-0.224,1.659-0.425,2.499-0.612c0.126-0.028,0.251-0.061,0.378-0.087c0.786-0.169,1.582-0.315,2.38-0.451   c0.179-0.03,0.355-0.067,0.535-0.096c0.75-0.12,1.507-0.216,2.266-0.306c0.229-0.027,0.453-0.063,0.682-0.087   c0.744-0.079,1.494-0.132,2.246-0.182c0.241-0.016,0.479-0.042,0.721-0.055c0.988-0.052,1.982-0.081,2.983-0.081   c31.054,0,56.317,25.264,56.317,56.318C448.598,337.962,423.334,363.226,392.28,363.226z"/><path d="M361.423,217.756l2.632,4.406c1.264,2.116,3.504,3.29,5.802,3.29c1.177,0,2.37-0.309,3.454-0.956   c3.201-1.911,4.246-6.056,2.334-9.256l-2.631-4.406c-1.912-3.2-6.058-4.247-9.257-2.333   C360.557,210.411,359.512,214.555,361.423,217.756z"/><path d="M349.035,197.021c1.264,2.116,3.503,3.29,5.801,3.29c1.178,0,2.37-0.309,3.455-0.957c3.2-1.912,4.246-6.057,2.333-9.257   l-25.466-42.626c-1.91-3.2-6.054-4.246-9.256-2.333c-3.2,1.912-4.245,6.057-2.332,9.257L349.035,197.021z"/></g></svg>